<svg role="img" viewBox="0 0 24 24" xmlns="http://www.w3.org/2000/svg" id="Scipy--Streamline-Simple-Icons" height="24" width="24">
  <desc>
    Scipy Streamline Icon: https://streamlinehq.com
  </desc>
  <title>SciPy</title>
  <path d="M15.697 13.496c-0.784 -1.072 -1.982 -1.519 -3.694 -1.88l-1.592 -0.375 -1.201 -0.515c-0.631 -0.446 -1.17 -1.634 -1.017 -2.681a3 3 0 0 1 3.386 -2.526 2.962 2.962 0 0 1 1.962 1.155L15.35 9.05c1.033 1.33 2.195 1.727 3.459 1.098l0.637 -0.27a0.22 0.22 0 0 1 0.278 0.087l0.127 0.19a0.311 0.311 0 0 0 0.156 0.131 0.326 0.326 0 0 0 0.33 -0.058l1.467 -1.384c0.257 -0.22 0.182 -0.422 0.182 -0.422l-0.354 -0.806s-0.097 -0.193 -0.431 -0.149l-1.968 0.181a0.327 0.327 0 0 0 -0.27 0.411l0.071 0.227c0.014 0.047 0.014 0.1 -0.005 0.148a0.219 0.219 0 0 1 -0.124 0.125l-0.556 0.235c-0.582 0.341 -1.244 0.123 -1.686 -0.417l-0.505 -0.67 -1.438 -1.91a4.421 4.421 0 0 0 -2.929 -1.72C9.355 3.733 7.095 5.42 6.741 7.84c-0.179 1.22 0.187 2.375 0.855 3.302 0.485 0.674 1.373 1.06 1.854 1.18l1.262 0.36 1.208 0.277c0.166 0.04 0.634 0.155 0.91 0.255 0.256 0.092 0.845 0.31 1.324 0.701 0.572 0.582 0.875 1.413 0.746 2.284a2.744 2.744 0 0 1 -4.897 1.255l-1.726 -2.292a2.294 2.294 0 0 0 -1.514 -0.89 2.31 2.31 0 0 0 -1.708 0.439l-3.632 2.71A11.002 11.002 0 0 1 0 12C0 5.798 5.133 0.768 11.465 0.768c4.715 0 8.761 2.788 10.523 6.77l0.581 -0.27 0.393 -1.072 0.411 0.144 -0.353 0.96 0.98 0.337 -0.148 0.402 -1.095 -0.382 -0.603 0.277c0.5 1.262 0.778 2.632 0.778 4.066 0 6.203 -5.135 11.232 -11.467 11.232a11.526 11.526 0 0 1 -9.26 -4.61l3.721 -2.788a0.855 0.855 0 0 1 1.163 0.19l1.826 2.455a4.186 4.186 0 0 0 2.673 1.502c2.302 0.322 4.439 -1.273 4.773 -3.563a4.14 4.14 0 0 0 -0.664 -2.922" fill="#000000" stroke-width="1"></path>
</svg>